<svg width="28" height="31" viewBox="0 0 28 31" fill="none" xmlns="http://www.w3.org/2000/svg">
<path d="M13.5258 0C7.12286 0 1.9323 5.19056 1.9323 11.5935V18.5221L0.565997 19.8884C0.0133798 20.441 -0.151935 21.2721 0.14714 21.9941C0.446214 22.7161 1.15078 23.1869 1.9323 23.1869H25.1192C25.9007 23.1869 26.6053 22.7161 26.9044 21.9941C27.2034 21.2721 27.0381 20.441 26.4855 19.8884L25.1192 18.5221V11.5935C25.1192 5.19056 19.9286 0 13.5258 0Z" fill="white"/>
<path d="M13.5257 30.9159C10.3243 30.9159 7.72897 28.3206 7.72897 25.1191H19.3224C19.3224 28.3206 16.7271 30.9159 13.5257 30.9159Z" fill="white"/>
</svg>
